<svg width="78" height="80" viewBox="0 0 78 80" fill="none" xmlns="http://www.w3.org/2000/svg">
<g clip-path="url(#clip0_2_654)">
<path d="M78 1.55859H0V79.5586H78V1.55859Z" fill="#F1F1F1"/>
<path d="M40.0781 23.8496H37.9219V31.3966H40.0781V23.8496Z" fill="#E13F1F"/>
<path d="M46.5469 23.8496H44.3906V31.3966H46.5469V23.8496Z" fill="#E13F1F"/>
<path d="M59.4845 23.8496H57.3282V31.3966H59.4845V23.8496Z" fill="#E13F1F"/>
<path d="M20.6718 23.8496H18.5155V31.3966H20.6718V23.8496Z" fill="#E13F1F"/>
<path d="M27.1406 23.8496H24.9844V31.3966H27.1406V23.8496Z" fill="#E13F1F"/>
<path d="M33.6094 23.8496H31.4531V31.3966H33.6094V23.8496Z" fill="#E13F1F"/>
<path d="M53.0158 23.8496H50.8595V31.3966H53.0158V23.8496Z" fill="#E13F1F"/>
<path d="M61.6408 31.3965H16.3593V35.709C19.9322 35.709 22.828 38.6049 22.828 42.1778V51.881H29.2968V45.4122C29.2968 40.0528 33.6406 35.709 39 35.709C44.3594 35.709 48.7032 40.0528 48.7032 45.4122V51.881H55.172V42.1778C55.172 38.6049 58.0678 35.709 61.6408 35.709V31.3965Z" fill="#E13F1F"/>
<path d="M58.4064 49.7237C56.6199 49.7237 55.172 48.6455 55.172 48.6455C55.172 48.6455 53.724 49.7237 51.9376 49.7237C50.1511 49.7237 48.7032 48.6455 48.7032 48.6455C48.7032 48.6455 47.2553 49.7237 45.4688 49.7237C43.6823 49.7237 42.2344 48.6455 42.2344 48.6455C42.2344 48.6455 40.7865 49.7237 39 49.7237C37.2135 49.7237 35.7656 48.6455 35.7656 48.6455C35.7656 48.6455 34.3177 49.7237 32.5312 49.7237C30.7448 49.7237 29.2968 48.6455 29.2968 48.6455C29.2968 48.6455 27.8489 49.7237 26.0624 49.7237C24.276 49.7237 22.828 48.6455 22.828 48.6455C22.828 48.6455 21.3801 49.7237 19.5936 49.7237C17.8072 49.7237 16.3593 48.6455 16.3593 48.6455V57.2706C16.3593 58.4619 17.3242 59.4268 18.5155 59.4268H42.2344H51.9376H59.4845C60.6758 59.4268 61.6408 58.4619 61.6408 57.2706V48.6455C61.6408 48.6455 60.1928 49.7237 58.4064 49.7237Z" fill="#2AA4F4"/>
<path d="M61.6408 21.6924H16.3593V23.8487H61.6408V21.6924Z" fill="#FF5634"/>
</g>
<defs>
<clipPath id="clip0_2_654">
<path d="M0 24.6094C0 11.3545 10.7452 0.609375 24 0.609375H54C67.2548 0.609375 78 11.3545 78 24.6094V55.6094C78 68.8642 67.2548 79.6094 54 79.6094H24C10.7452 79.6094 0 68.8642 0 55.6094V24.6094Z" fill="white"/>
</clipPath>
</defs>
</svg>
