<svg width="78" height="79" viewBox="0 0 78 79" fill="none" xmlns="http://www.w3.org/2000/svg">
<g clip-path="url(#clip0_2_694)">
<path d="M78 0.609375H0V78.6094H78V0.609375Z" fill="#F1F1F1"/>
<path d="M52.5839 44.3359H24.041L17.6309 64.4266H58.9941L52.5839 44.3359Z" fill="#FF5634"/>
<path d="M40.9538 27.7911L39.0157 14.2192C38.8998 13.4061 37.7263 13.4061 37.6093 14.2192L35.6711 27.7911H40.9538Z" fill="#929292"/>
<path d="M48.7396 30.4909L54.7786 18.1836C55.1402 17.4462 54.17 16.7855 53.6169 17.3918L44.3728 27.5163L48.7396 30.4909Z" fill="#929292"/>
<path d="M50.9045 38.014L62.2192 30.272C62.8963 29.8088 62.3775 28.7558 61.5975 29.011L48.5681 33.275L50.9045 38.014Z" fill="#929292"/>
<path d="M49.3091 45.3223L62.9731 44.2043C63.7921 44.1369 63.8618 42.9658 63.0582 42.8015L49.6282 40.0479L49.3091 45.3223Z" fill="#929292"/>
<path d="M32.2521 27.5163L23.008 17.3918C22.4549 16.7855 21.4847 17.4462 21.8463 18.1836L27.8853 30.4909L32.2521 27.5163Z" fill="#929292"/>
<path d="M28.0567 33.2762L15.0273 29.011C14.2473 28.7558 13.7273 29.8088 14.4057 30.272L25.7203 38.014L28.0567 33.2762Z" fill="#929292"/>
<path d="M26.9978 40.0479L13.5678 42.8015C12.763 42.9669 12.8339 44.1381 13.6529 44.2043L27.3169 45.3223L26.9978 40.0479Z" fill="#929292"/>
<path d="M45.5014 57.3369H38.3125H31.1235C31.1235 57.3369 19.9945 57.3369 15.8582 65.6096H38.3125H60.7668C56.6305 57.3369 45.5014 57.3369 45.5014 57.3369Z" fill="#CACACA"/>
<path d="M38.3124 24.2461C29.703 24.2461 24.1307 28.4734 24.1307 37.415C24.1307 53.2358 38.3124 54.9731 38.3124 54.9731C38.3124 54.9731 52.4941 53.2358 52.4941 37.415C52.4941 28.4734 46.9219 24.2461 38.3124 24.2461Z" fill="#CACACA"/>
<path d="M38.3124 28.9727C28.5696 28.9727 26.4944 35.0531 26.4944 40.7836C26.4944 48.6013 30.7241 52.6088 30.7241 52.6088H45.8996C45.8996 52.6088 50.1293 48.6013 50.1293 40.7836C50.1305 35.0531 48.0552 28.9727 38.3124 28.9727Z" fill="#929292"/>
<path d="M45.4033 51.1562H31.2217V58.9904C31.2217 58.9904 31.2217 63.2449 38.3125 63.2449C45.4033 63.2449 45.4033 58.9904 45.4033 58.9904V51.1562Z" fill="#929292"/>
<path d="M47.7668 42.2675C47.7668 35.0987 43.5277 32.5176 38.3124 32.5176C33.097 32.5176 28.8579 35.0987 28.8579 42.2675C28.8579 42.8265 28.8579 44.9585 28.8579 45.5175C28.8579 52.6839 33.097 58.5173 38.3124 58.5173C43.5277 58.5173 47.7668 52.6839 47.7668 45.5175C47.7668 44.9585 47.7668 42.8265 47.7668 42.2675Z" fill="#CACACA"/>
</g>
<defs>
<clipPath id="clip0_2_694">
<path d="M0 24.6094C0 11.3545 10.7452 0.609375 24 0.609375H54C67.2548 0.609375 78 11.3545 78 24.6094V54.6094C78 67.8642 67.2548 78.6094 54 78.6094H24C10.7452 78.6094 0 67.8642 0 54.6094V24.6094Z" fill="white"/>
</clipPath>
</defs>
</svg>
