<svg width="78" height="79" viewBox="0 0 78 79" fill="none" xmlns="http://www.w3.org/2000/svg">
<g clip-path="url(#clip0_2_668)">
<path d="M78 0.609375H0V78.6094H78V0.609375Z" fill="#F1F1F1"/>
<path d="M16.9611 55.2685C29.7274 51.2934 32.6598 28.5909 32.6598 28.5909L33.9241 28.5898C33.9241 28.5898 34.3602 45.989 27.4006 55.2685H16.9611Z" fill="#E8AD8C"/>
<path d="M33.2002 28.7868L44.7997 17.1874C44.171 17.0574 43.5191 16.9902 42.8521 16.9902C37.521 16.9902 33.2002 21.311 33.2002 26.6421V28.7868Z" fill="#4CAF50"/>
<path d="M33.2002 28.59H51.728C49.6111 25.7771 46.2554 23.9502 42.4647 23.9502C38.674 23.9502 35.3171 25.7771 33.2002 28.59Z" fill="#4CAF50"/>
<path d="M35.1698 28.5898H33.0123L45.7717 41.3492C45.89 40.71 45.9596 40.0535 45.9596 39.3796C45.9596 33.4198 41.1285 28.5898 35.1698 28.5898Z" fill="#4CAF50"/>
<path d="M33.2003 28.7868L21.6008 17.1874C22.2295 17.0574 22.8814 16.9902 23.5484 16.9902C28.8795 16.9902 33.2003 21.311 33.2003 26.6421V28.7868Z" fill="#4CAF50"/>
<path d="M33.2003 28.59H14.6725C16.7894 25.7771 20.1451 23.9502 23.9358 23.9502C27.7265 23.9502 31.0834 25.7771 33.2003 28.59Z" fill="#4CAF50"/>
<path d="M31.2306 28.5898H33.3881L20.6287 41.3492C20.5104 40.71 20.4408 40.0535 20.4408 39.3796C20.4408 33.4198 25.272 28.5898 31.2306 28.5898Z" fill="#4CAF50"/>
<path d="M37.0269 53.752L52.9193 62.2277H16.961C15.6793 62.2277 14.6411 61.1896 14.6411 59.9078V52.9482H33.8115C34.9332 52.9482 36.0375 53.2242 37.0269 53.752Z" fill="#FDB52A"/>
<path d="M59.8791 54.1081C57.957 54.1081 56.3992 52.9482 56.3992 52.9482C56.3992 52.9482 54.8414 54.1081 52.9194 54.1081C50.9973 54.1081 49.4395 52.9482 49.4395 52.9482C49.4395 52.9482 47.8817 54.1081 45.9597 54.1081C44.0377 54.1081 42.4799 52.9482 42.4799 52.9482C42.4799 52.9482 40.9221 54.1081 39 54.1081C38.1811 54.1081 37.4376 53.8958 36.8425 53.6534L52.9194 62.2277H61.039C62.3207 62.2277 63.3589 61.1896 63.3589 59.9078V52.9482C63.3589 52.9482 61.8011 54.1081 59.8791 54.1081Z" fill="#2AA4F4"/>
</g>
<defs>
<clipPath id="clip0_2_668">
<path d="M0 24.6094C0 11.3545 10.7452 0.609375 24 0.609375H54C67.2548 0.609375 78 11.3545 78 24.6094V54.6094C78 67.8642 67.2548 78.6094 54 78.6094H24C10.7452 78.6094 0 67.8642 0 54.6094V24.6094Z" fill="white"/>
</clipPath>
</defs>
</svg>
