<svg width="78" height="79" viewBox="0 0 78 79" fill="none" xmlns="http://www.w3.org/2000/svg">
<g clip-path="url(#clip0_2_681)">
<path d="M78 0.609375H0V78.6094H78V0.609375Z" fill="#F1F1F1"/>
<path d="M47.2031 94.0467H30.7969L34.8984 44.8281H43.1015L47.2031 94.0467Z" fill="#929292"/>
<path d="M37.3594 94.0467H30.7969L34.8984 44.8281H37.3594V94.0467Z" fill="#CACACA"/>
<path d="M39.5469 25.1406C39.3314 25.1407 39.118 25.1214 38.9189 25.084C38.7198 25.0465 38.5389 24.9916 38.3865 24.9223C38.2341 24.8531 38.1133 24.7708 38.0309 24.6803C37.9485 24.5898 37.9061 24.4928 37.9063 24.3949V9.48011C37.9063 9.28233 38.079 9.09265 38.3867 8.9528C38.6945 8.81295 39.1118 8.73438 39.5469 8.73438C39.982 8.73438 40.3993 8.81295 40.707 8.9528C41.0146 9.09265 41.1875 9.28233 41.1875 9.48011V24.3949C41.1876 24.4928 41.1453 24.5898 41.0629 24.6803C40.9805 24.7708 40.8596 24.8531 40.7072 24.9223C40.5549 24.9916 40.374 25.0465 40.1749 25.084C39.9758 25.1214 39.7624 25.1407 39.5469 25.1406Z" fill="#1D88FE"/>
<path d="M33.3489 21.8594H44.6509C45.5212 21.8594 46.3558 22.2051 46.9711 22.8205C47.5865 23.4358 47.9322 24.2704 47.9322 25.1406V31.7031H30.0676V25.1406C30.0676 24.2704 30.4133 23.4358 31.0287 22.8205C31.644 22.2051 32.4786 21.8594 33.3489 21.8594Z" fill="#8FC3FF"/>
<path d="M52.125 31.7031H25.875C24.0628 31.7031 22.5938 33.1721 22.5938 34.9843C22.5938 36.7965 24.0628 38.2655 25.875 38.2655H52.1249C53.9371 38.2655 55.4062 36.7965 55.4062 34.9843C55.4062 33.1721 53.937 31.7031 52.125 31.7031Z" fill="#1D88FE"/>
<path d="M59.7812 38.2656H18.2188C17.0107 38.2656 16.0312 39.245 16.0312 40.4531C16.0312 41.6613 17.0107 42.6406 18.2188 42.6406H59.7812C60.9893 42.6406 61.9688 41.6613 61.9688 40.4531C61.9688 39.245 60.9893 38.2656 59.7812 38.2656Z" fill="#8FC3FF"/>
<path d="M52.125 42.6406H25.875C24.0628 42.6406 22.5938 44.1097 22.5938 45.9219C22.5938 47.7341 24.0628 49.2031 25.875 49.2031H52.1249C53.9371 49.2031 55.4062 47.7341 55.4062 45.9219C55.4062 44.1097 53.937 42.6406 52.125 42.6406Z" fill="#1D88FE"/>
</g>
<defs>
<clipPath id="clip0_2_681">
<path d="M0 24.6094C0 11.3545 10.7452 0.609375 24 0.609375H54C67.2548 0.609375 78 11.3545 78 24.6094V54.6094C78 67.8642 67.2548 78.6094 54 78.6094H24C10.7452 78.6094 0 67.8642 0 54.6094V24.6094Z" fill="white"/>
</clipPath>
</defs>
</svg>
